<svg class="icon"
    style="width: 1em;height: 1em;vertical-align: middle;fill: currentColor;overflow: hidden;"
    viewBox="0 0 1024 1024" version="1.1" xmlns="http://www.w3.org/2000/svg" p-id="1953">
    <path
        d="M717.909333 500.757333h-23.338666V436.48h24.192c24.128 0 36.181333 10.090667 36.181333 30.272 0 9.706667-3.392 17.792-10.154667 24.277333-6.784 6.485333-15.744 9.728-26.88 9.728z m71.168 56.64c-12.48-19.221333-23.872-30.549333-34.133333-34.005333v-0.576c15.573333-4.416 27.776-12.074667 36.650667-22.912 8.896-10.858667 13.333333-23.872 13.333333-39.061333 0-40.341333-26.56-60.522667-79.68-60.522667h-78.250667v223.210667h47.573334v-86.464h14.4c5.184 0 10.090667 1.728 14.72 5.184 4.586667 3.477333 10.496 11.2 17.706666 23.210666l35.008 58.069334h54.762667l-42.090667-66.133334z m-181.546666 58.069334c-16.213333 7.957333-37.418667 11.968-63.552 11.968-33.621333 0-60.309333-10.090667-80.042667-30.208-19.733333-20.117333-29.610667-46.933333-29.610667-80.469334 0-35.264 11.029333-64.106667 33.066667-86.528 22.058667-22.442667 50.517333-33.642667 85.376-33.642666 21.824 0 40.064 2.816 54.762667 8.490666v45.973334c-15.082667-8.853333-32.192-13.248-51.306667-13.248-21.802667 0-39.232 6.954667-52.309333 20.885333-13.056 13.930667-19.584 32.128-19.584 54.613333 0 21.909333 6.208 39.530667 18.581333 52.885334 12.394667 13.354667 29.162667 20.032 50.304 20.032 19.882667 0 37.973333-4.821333 54.314667-14.421334v43.669334z m-262.4-49.066667c-10.368 13.205333-24.874667 19.818667-43.52 19.818667-18.261333 0-32.618667-6.912-43.093334-20.693334-10.453333-13.781333-15.701333-31.530667-15.701333-53.248 0-21.994667 5.354667-39.914667 16.085333-53.738666 10.709333-13.824 25.386667-20.757333 44.010667-20.757334 18.346667 0 32.554667 6.762667 42.666667 20.245334 10.069333 13.504 15.146667 31.872 15.146666 55.125333 0 22.293333-5.226667 40.042667-15.573333 53.248z m36.266666-137.962667c-19.477333-21.226667-45.162667-31.850667-77.013333-31.850666-33.557333 0-60.522667 10.965333-80.938667 32.917333-20.416 21.952-30.634667 50.410667-30.634666 85.376 0 33.045333 10.026667 60.074667 29.994666 81.066667 19.968 20.970667 45.952 31.488 77.952 31.488 32.746667 0 59.242667-10.837333 79.466667-32.512 20.224-21.653333 30.336-49.856 30.336-84.650667 0-33.322667-9.749333-60.608-29.184-81.834667zM363.626667 874.666667h-32.810667C230.762667 874.666667 149.333333 793.258667 149.333333 693.162667v-32.789334a32 32 0 1 1 64 0v32.789334A117.632 117.632 0 0 0 330.816 810.666667h32.810667a32 32 0 1 1 0 64M693.162667 874.666667H660.373333a32 32 0 0 1 0-64h32.789334a117.632 117.632 0 0 0 117.504-117.504V660.373333a32 32 0 0 1 64 0v32.789334c0 100.096-81.429333 181.504-181.504 181.504M181.333333 395.648a32 32 0 0 1-32-32V330.837333C149.333333 230.762667 230.741333 149.333333 330.837333 149.333333h32.789334a32 32 0 1 1 0 64H330.837333A117.632 117.632 0 0 0 213.333333 330.837333v32.810667a32 32 0 0 1-32 32M842.666667 395.648a32 32 0 0 1-32-32V330.837333A117.632 117.632 0 0 0 693.162667 213.333333H660.373333a32 32 0 0 1 0-64h32.789334c100.096 0 181.504 81.429333 181.504 181.504v32.810667a32 32 0 0 1-32 32"
        p-id="1954"></path>
</svg>